<svg width="54" height="60" viewBox="0 0 54 60" fill="none" xmlns="http://www.w3.org/2000/svg">
<path d="M52.9984 41.4373V18.3269C52.9974 17.3137 52.73 16.3186 52.2229 15.4414C51.7159 14.5643 50.9871 13.8359 50.1096 13.3293L29.888 1.77405C29.0097 1.26696 28.0134 1 26.9992 1C25.985 1 24.9887 1.26696 24.1104 1.77405L3.8888 13.3293C3.01137 13.8359 2.28257 14.5643 1.77553 15.4414C1.26849 16.3186 1.00104 17.3137 1 18.3269V41.4373C1.00104 42.4505 1.26849 43.4456 1.77553 44.3228C2.28257 45.1999 3.01137 45.9284 3.8888 46.4349L24.1104 57.9902C24.9887 58.4972 25.985 58.7642 26.9992 58.7642C28.0134 58.7642 29.0097 58.4972 29.888 57.9902L50.1096 46.4349C50.9871 45.9284 51.7159 45.1999 52.2229 44.3228C52.73 43.4456 52.9974 42.4505 52.9984 41.4373Z" stroke="black" stroke-width="2" stroke-linecap="round" stroke-linejoin="round"/>
<path d="M1.77808 15.3223L26.9973 29.9107L52.2166 15.3223" stroke="black" stroke-width="2" stroke-linecap="round" stroke-linejoin="round"/>
<path d="M26.998 57.8076L26.998 29.8076" stroke="black" stroke-width="2" stroke-linecap="round" stroke-linejoin="round"/>
<path d="M18.998 4.80762L19.5125 3.95012L18.9699 3.62454L18.4433 3.97557L18.998 4.80762ZM43.998 19.8076H44.998V19.2414L44.5125 18.9501L43.998 19.8076ZM43.998 34.8076L43.2909 35.5147C43.5769 35.8007 44.0071 35.8863 44.3807 35.7315C44.7544 35.5767 44.998 35.2121 44.998 34.8076H43.998ZM39.998 30.8076L40.7052 30.1005C40.4749 29.8702 40.1469 29.7665 39.8261 29.8225C39.5053 29.8785 39.2319 30.0872 39.0932 30.3818L39.998 30.8076ZM35.998 39.3076H34.998C34.998 39.7758 35.3229 40.1814 35.7799 40.2835C36.2368 40.3857 36.7035 40.1571 36.9029 39.7334L35.998 39.3076ZM35.998 24.3076H36.998V23.7316L36.4998 23.4426L35.998 24.3076ZM10.998 9.80762L10.4836 8.95012L9.03007 9.82222L10.4963 10.6726L10.998 9.80762ZM15.998 6.80762L16.5125 7.66511L16.5329 7.65287L16.5527 7.63967L15.998 6.80762ZM18.4836 5.66511L43.4836 20.6651L44.5125 18.9501L19.5125 3.95012L18.4836 5.66511ZM42.998 19.8076V34.8076H44.998V19.8076H42.998ZM44.7052 34.1005L40.7052 30.1005L39.2909 31.5147L43.2909 35.5147L44.7052 34.1005ZM39.0932 30.3818L35.0932 38.8818L36.9029 39.7334L40.9029 31.2334L39.0932 30.3818ZM36.998 39.3076V24.3076H34.998V39.3076H36.998ZM36.4998 23.4426L11.4998 8.94259L10.4963 10.6726L35.4963 25.1726L36.4998 23.4426ZM11.5125 10.6651L16.5125 7.66511L15.4836 5.95012L10.4836 8.95012L11.5125 10.6651ZM16.5527 7.63967L19.5527 5.63967L18.4433 3.97557L15.4433 5.97557L16.5527 7.63967Z" fill="black"/>
</svg>
