<svg width="56" height="58" viewBox="0 0 56 58" fill="none" xmlns="http://www.w3.org/2000/svg">
<path fill-rule="evenodd" clip-rule="evenodd" d="M22.5998 4.24796C23.599 -1.41598 31.7265 -1.41599 32.7257 4.24796C33.1628 6.72596 36.1907 7.70977 38.0009 5.96197C42.1384 1.96707 48.7137 6.74429 46.1929 11.9138C45.0901 14.1755 46.9614 16.7512 49.4532 16.4012C55.1487 15.6012 57.6602 23.3309 52.5822 26.0315C50.3606 27.213 50.3606 30.3967 52.5822 31.5782C57.6602 34.2787 55.1487 42.0084 49.4532 41.2085C46.9614 40.8585 45.0901 43.4341 46.1929 45.6958C48.7137 50.8654 42.1384 55.6426 38.0009 51.6477C36.1907 49.8999 33.1628 50.8837 32.7257 53.3617C31.7265 59.0257 23.599 59.0257 22.5998 53.3617C22.1626 50.8837 19.1348 49.8999 17.3246 51.6477C13.187 55.6426 6.61173 50.8654 9.13254 45.6958C10.2354 43.4341 8.3641 40.8585 5.87229 41.2085C0.176791 42.0084 -2.33475 34.2787 2.74321 31.5782C4.96485 30.3967 4.96485 27.213 2.74321 26.0315C-2.33475 23.3309 0.176789 15.6012 5.87229 16.4012C8.3641 16.7512 10.2354 14.1755 9.13254 11.9138C6.61173 6.74429 13.187 1.96707 17.3246 5.96197C19.1348 7.70977 22.1626 6.72596 22.5998 4.24796ZM30.7561 4.59542C30.1456 1.13486 25.1799 1.13486 24.5694 4.59542C23.8539 8.65121 18.8982 10.2614 15.9354 7.40077C13.4074 4.95996 9.39004 7.87875 10.9302 11.0372C12.7353 14.739 9.67249 18.9546 5.59411 18.3817C2.11427 17.893 0.579768 22.6157 3.68231 24.2657C7.31848 26.1995 7.31848 31.4102 3.68231 33.344C0.57977 34.994 2.11427 39.7167 5.59411 39.2279C9.67249 38.6551 12.7353 42.8707 10.9302 46.5724C9.39004 49.7309 13.4074 52.6497 15.9354 50.2089C18.8982 47.3483 23.8539 48.9585 24.5694 53.0142C25.1799 56.4748 30.1456 56.4748 30.7561 53.0143C31.4716 48.9585 36.4273 47.3483 39.3901 50.2089C41.918 52.6497 45.9354 49.7309 44.3953 46.5724C42.5902 42.8707 45.653 38.6551 49.7313 39.2279C53.2112 39.7167 54.7457 34.994 51.6432 33.344C48.007 31.4102 48.007 26.1995 51.6432 24.2657C54.7457 22.6157 53.2112 17.893 49.7313 18.3817C45.653 18.9546 42.5902 14.739 44.3953 11.0372C45.9354 7.87875 41.918 4.95996 39.3901 7.40077C36.4273 10.2614 31.4716 8.6512 30.7561 4.59542Z" fill="black"/>
<path fill-rule="evenodd" clip-rule="evenodd" d="M37.8692 18.5976C38.2597 18.9881 38.2597 19.6213 37.8692 20.0118L18.8692 39.0118C18.4787 39.4023 17.8455 39.4023 17.455 39.0118C17.0645 38.6213 17.0645 37.9881 17.455 37.5976L36.455 18.5976C36.8455 18.2071 37.4787 18.2071 37.8692 18.5976Z" fill="black"/>
<path fill-rule="evenodd" clip-rule="evenodd" d="M20 23C21.1046 23 22 22.1046 22 21C22 19.8954 21.1046 19 20 19C18.8954 19 18 19.8954 18 21C18 22.1046 18.8954 23 20 23ZM20 25C22.2091 25 24 23.2091 24 21C24 18.7909 22.2091 17 20 17C17.7909 17 16 18.7909 16 21C16 23.2091 17.7909 25 20 25Z" fill="black"/>
<path fill-rule="evenodd" clip-rule="evenodd" d="M35.1621 37.3047C36.2667 37.3047 37.1621 36.4093 37.1621 35.3047C37.1621 34.2001 36.2667 33.3047 35.1621 33.3047C34.0575 33.3047 33.1621 34.2001 33.1621 35.3047C33.1621 36.4093 34.0575 37.3047 35.1621 37.3047ZM35.1621 39.3047C37.3712 39.3047 39.1621 37.5138 39.1621 35.3047C39.1621 33.0955 37.3712 31.3047 35.1621 31.3047C32.953 31.3047 31.1621 33.0955 31.1621 35.3047C31.1621 37.5138 32.953 39.3047 35.1621 39.3047Z" fill="black"/>
</svg>
