<svg width="45" height="45" viewBox="0 0 45 45" fill="none" xmlns="http://www.w3.org/2000/svg">
<path fill-rule="evenodd" clip-rule="evenodd" d="M1.31162 1.31162C2.15144 0.471804 3.29047 0 4.47816 0H25.7767C26.4402 0 26.9782 0.53791 26.9782 1.20146C26.9782 1.865 26.4402 2.40291 25.7767 2.40291H4.47816C3.92777 2.40291 3.39992 2.62155 3.01074 3.01074C2.62155 3.39992 2.40291 3.92777 2.40291 4.47816V40.5218C2.40291 41.0722 2.62155 41.6001 3.01074 41.9893C3.39992 42.3784 3.92777 42.5971 4.47816 42.5971H33.9684C34.5188 42.5971 35.0467 42.3784 35.4359 41.9893C35.8251 41.6001 36.0437 41.0722 36.0437 40.5218V25.7767C36.0437 25.1132 36.5816 24.5752 37.2451 24.5752C37.9087 24.5752 38.4466 25.1132 38.4466 25.7767V40.5218C38.4466 41.7095 37.9748 42.8486 37.135 43.6884C36.2952 44.5282 35.1561 45 33.9684 45H4.47816C3.29047 45 2.15144 44.5282 1.31162 43.6884C0.471805 42.8486 0 41.7095 0 40.5218V4.47816C0 3.29047 0.471805 2.15144 1.31162 1.31162Z" fill="black"/>
<path fill-rule="evenodd" clip-rule="evenodd" d="M0 33.969C0 33.3055 0.53791 32.7676 1.20146 32.7676H37.2451C37.9087 32.7676 38.4466 33.3055 38.4466 33.969C38.4466 34.6326 37.9087 35.1705 37.2451 35.1705H1.20146C0.53791 35.1705 0 34.6326 0 33.969Z" fill="black"/>
<path fill-rule="evenodd" clip-rule="evenodd" d="M9.82983 9.39384C9.82983 8.73029 10.3677 8.19238 11.0313 8.19238H17.5847C18.2482 8.19238 18.7861 8.73029 18.7861 9.39384C18.7861 10.0574 18.2482 10.5953 17.5847 10.5953H11.0313C10.3677 10.5953 9.82983 10.0574 9.82983 9.39384Z" fill="black"/>
<path fill-rule="evenodd" clip-rule="evenodd" d="M9.82983 17.5852C9.82983 16.9217 10.3677 16.3838 11.0313 16.3838H14.308C14.9715 16.3838 15.5094 16.9217 15.5094 17.5852C15.5094 18.2488 14.9715 18.7867 14.308 18.7867H11.0313C10.3677 18.7867 9.82983 18.2488 9.82983 17.5852Z" fill="black"/>
<path fill-rule="evenodd" clip-rule="evenodd" d="M37.0299 2.40389C36.7559 2.40389 36.4847 2.45813 36.2318 2.56349C35.9789 2.66885 35.7494 2.82323 35.5565 3.01774L35.551 3.02326L21.9656 16.5444L20.6663 24.4439L28.4498 23.0428L41.9853 9.44311C42.1801 9.2507 42.3347 9.02156 42.4403 8.76893C42.5458 8.51631 42.6002 8.24523 42.6002 7.97143C42.6002 7.69763 42.5458 7.42656 42.4403 7.17393C42.3347 6.9213 42.1801 6.69214 41.9853 6.49972L41.9801 6.49455L38.5068 3.02123L38.5033 3.01774C38.3104 2.82323 38.0809 2.66885 37.828 2.56349C37.5751 2.45813 37.3038 2.40389 37.0299 2.40389ZM35.3077 0.345378C35.8534 0.118028 36.4387 0.000976562 37.0299 0.000976562C37.6211 0.000976562 38.2064 0.118027 38.7521 0.345378C39.297 0.572393 39.7916 0.904894 40.2075 1.32375C40.2081 1.32437 40.2088 1.32499 40.2094 1.32561L43.674 4.79023C43.6749 4.79111 43.6758 4.792 43.6767 4.79288C44.0964 5.20825 44.4298 5.70266 44.6575 6.24758C44.8856 6.79367 45.0031 7.37961 45.0031 7.97143C45.0031 8.56325 44.8856 9.14919 44.6575 9.69528C44.43 10.2397 44.0971 10.7337 43.6778 11.1488L29.8863 25.0059C29.7127 25.1803 29.4898 25.2972 29.2476 25.3408L19.4175 27.1102C19.0334 27.1793 18.6396 27.0576 18.3615 26.7837C18.0835 26.5098 17.9558 26.1179 18.0191 25.7328L19.6575 15.7716C19.6984 15.5227 19.8167 15.293 19.9955 15.115L33.8533 1.32265C34.269 0.904312 34.7633 0.572194 35.3077 0.345378Z" fill="black"/>
</svg>
