<svg width="49" height="41" viewBox="0 0 49 41" fill="none" xmlns="http://www.w3.org/2000/svg">
<path d="M46.0281 36.0413C45.8051 36.0413 45.5784 36.016 45.3591 36.0466C44.9644 36.1024 44.8612 35.9671 44.8627 35.5564C44.8793 30.7149 44.874 25.8741 44.8725 21.0325C44.8725 19.1452 43.793 18.0417 41.9428 18.0394C39.5818 18.0371 37.2209 18.0317 34.8607 18.047C34.5232 18.0493 34.4373 17.9537 34.4411 17.6172C34.4591 15.9662 34.4509 14.3143 34.4494 12.6625C34.4486 12.0553 34.1895 11.7272 33.7239 11.7272C33.2561 11.728 33.009 12.0469 33.0082 12.6648C33.006 14.3166 32.9969 15.9685 33.0143 17.6195C33.018 17.9659 32.9163 18.0493 32.5864 18.0462C30.6405 18.031 28.6946 18.0493 26.7488 18.034C25.9856 18.0279 25.2933 18.1893 24.7185 18.72C24.589 18.84 24.5106 18.8622 24.3705 18.7299C23.7867 18.1778 23.0755 18.0287 22.2973 18.034C19.9522 18.0485 17.6078 18.0394 15.2627 18.0394C15.0465 18.0394 14.831 18.1036 14.8318 17.7243C14.8431 12.7206 14.8348 7.71772 14.8461 2.71405C14.8476 1.97914 15.3682 1.48359 16.1057 1.47059C17.0782 1.45376 18.0515 1.47518 19.0241 1.45912C19.2817 1.45529 19.3458 1.53788 19.3412 1.78795C19.3269 2.56493 19.3269 3.34266 19.339 4.11963C19.354 5.12297 20.0456 5.82576 21.0355 5.83035C22.8699 5.84029 24.7042 5.83876 26.5386 5.83111C27.5684 5.82729 28.2366 5.1482 28.2509 4.09899C28.2622 3.33807 28.2645 2.5764 28.2479 1.81548C28.2419 1.54171 28.3195 1.45529 28.5952 1.45912C29.5836 1.47518 30.5727 1.46294 31.5618 1.466C32.5261 1.46982 33.003 1.94931 33.0052 2.92588C33.009 4.70695 33.006 6.48802 33.006 8.26909C33.006 8.52834 32.9924 8.78835 33.0143 9.04607C33.0482 9.45826 33.2847 9.69762 33.6923 9.71903C34.1073 9.74121 34.3439 9.49879 34.4343 9.10801C34.4659 8.96959 34.4486 8.81817 34.4486 8.67211C34.4494 6.77786 34.4501 4.88361 34.4486 2.98935C34.4471 1.1081 33.36 0.00152947 31.5129 0C26.4565 0 21.4001 0 16.3437 0C14.4837 0 13.3982 1.09587 13.3974 2.97482C13.3967 7.84849 13.3929 12.7222 13.4065 17.5958C13.4072 17.9637 13.3161 18.0508 12.959 18.047C11.0139 18.0287 9.06727 18.0378 7.1214 18.0394C6.81932 18.0394 6.51572 18.0378 6.21891 18.1181C4.99399 18.45 4.21504 19.5 4.21429 20.8544C4.21052 25.7601 4.20901 30.6667 4.22107 35.5725C4.22182 35.9426 4.14649 36.0787 3.76003 36.0497C3.2681 36.013 2.7709 36.0244 2.27746 36.0497C0.802436 36.1231 -0.276338 37.5952 0.0626623 39.0528C0.350436 40.2894 1.29738 40.9983 2.67297 40.9983C17.2198 40.999 31.7667 40.999 46.3136 40.999C46.4251 40.999 46.5374 41.0029 46.6481 40.9952C47.6621 40.9226 48.3747 40.4087 48.8094 39.481C48.8749 39.3403 48.8554 39.1591 49 39.0558V38.0846C48.3943 36.4741 47.7638 36.0413 46.0281 36.0413ZM21.1018 1.46065C22.0095 1.47288 22.9181 1.46523 23.8258 1.46523C24.6861 1.46523 25.5472 1.47594 26.4075 1.45988C26.6968 1.45376 26.8301 1.50118 26.8166 1.84454C26.7879 2.55498 26.7985 3.26772 26.8121 3.97892C26.8181 4.27411 26.7111 4.37506 26.4218 4.37353C24.6688 4.36435 22.9158 4.36511 21.1636 4.37353C20.8675 4.37506 20.7718 4.25117 20.7756 3.96669C20.7861 3.23942 20.7899 2.51063 20.7733 1.78337C20.7673 1.52106 20.8569 1.45682 21.1018 1.46065ZM31.5181 19.5054C32.4267 19.5199 33.3359 19.5107 34.2452 19.5107C35.1545 19.5107 35.9997 19.526 36.8758 19.5031C37.1809 19.4947 37.248 19.5895 37.2389 19.8824C37.2179 20.5936 37.2231 21.3063 37.2367 22.0183C37.242 22.2936 37.1395 22.3922 36.8751 22.3915C35.1048 22.3854 33.3344 22.3861 31.5648 22.3907C31.3019 22.3915 31.195 22.2905 31.1995 22.016C31.2115 21.288 31.2138 20.5592 31.198 19.8311C31.1919 19.575 31.2673 19.5015 31.5181 19.5054ZM25.2655 20.9966C25.2655 19.9665 25.7062 19.5153 26.7126 19.5115C27.5902 19.5084 28.4679 19.526 29.3448 19.5031C29.6687 19.4947 29.7847 19.565 29.7704 19.9183C29.741 20.6456 29.7576 21.3751 29.7629 22.1039C29.7711 23.1478 30.4318 23.8537 31.4594 23.8628C33.2937 23.8804 35.1281 23.8789 36.9625 23.8636C38.0171 23.8552 38.6665 23.1585 38.674 22.0741C38.6793 21.3293 38.6846 20.5844 38.6695 19.8396C38.665 19.5918 38.7268 19.5023 38.9859 19.5054C40.0542 19.5199 41.1231 19.5023 42.1921 19.5168C42.8709 19.5268 43.3236 19.9573 43.4125 20.6387C43.4314 20.7825 43.4276 20.9293 43.4276 21.0754C43.4283 25.9001 43.4223 30.7256 43.4381 35.5511C43.4381 35.9587 43.3334 36.0535 42.9402 36.0512C40.0692 36.0328 37.1975 36.0413 34.3266 36.0413C31.4556 36.0413 28.5839 36.0321 25.7129 36.052C25.322 36.0543 25.2564 35.9311 25.2572 35.5694C25.2685 30.7118 25.264 25.8542 25.2655 20.9966ZM11.9171 19.5061C13.7168 19.5153 15.5166 19.5168 17.317 19.5054C17.5754 19.5031 17.6364 19.5857 17.6312 19.8342C17.6153 20.5293 17.6093 21.2253 17.6327 21.9196C17.6447 22.2752 17.54 22.4052 17.1777 22.3961C16.3181 22.3731 15.457 22.3884 14.5975 22.3884C13.7379 22.3884 12.8769 22.38 12.0166 22.393C11.71 22.3976 11.5887 22.289 11.5955 21.9709C11.6105 21.2597 11.6098 20.5477 11.5947 19.8365C11.5894 19.5826 11.6663 19.5046 11.9171 19.5061ZM46.6504 39.5231C46.4771 39.5453 46.3001 39.5346 46.1245 39.5346C38.9166 39.5353 31.708 39.5346 24.5001 39.5346H2.82815C1.9249 39.5346 1.43298 39.169 1.44277 38.506C1.45256 37.859 1.93394 37.5057 2.80706 37.5057C6.0125 37.5057 9.21718 37.5027 12.4226 37.5096C12.8046 37.5103 13.1285 37.4338 13.2859 37.0492C13.5006 36.5253 13.1277 36.0451 12.4995 36.0436C10.4579 36.0382 8.41638 36.0413 6.3756 36.0413C5.89598 36.0413 5.65617 35.7955 5.65617 35.3041C5.65617 30.5612 5.65542 25.8183 5.65617 21.0746C5.65617 19.9504 6.0818 19.513 7.17564 19.5115C8.02088 19.51 8.86688 19.5275 9.71137 19.5031C10.0504 19.4931 10.1852 19.5551 10.1649 19.9413C10.128 20.6356 10.1506 21.3331 10.1551 22.029C10.1619 23.1623 10.8255 23.8598 11.9277 23.8659C13.7297 23.8751 15.5316 23.8766 17.3336 23.8659C18.4033 23.859 19.055 23.1883 19.0708 22.1032C19.0813 21.3751 19.0859 20.6456 19.067 19.9176C19.0595 19.614 19.1235 19.4947 19.4573 19.5031C20.4607 19.5275 21.4664 19.5061 22.4706 19.5138C23.3482 19.5199 23.8183 20.0024 23.8213 20.9048C23.8266 22.8473 23.8228 24.7897 23.8228 26.7321C23.8228 29.6787 23.816 32.6252 23.8311 35.5709C23.8334 35.9403 23.7565 36.0558 23.3693 36.052C21.0099 36.0321 18.6497 36.042 16.2895 36.042C16.1456 36.0428 15.9994 36.029 15.8593 36.0512C15.4601 36.1162 15.2243 36.3632 15.2235 36.7731C15.222 37.183 15.4578 37.4323 15.8563 37.4966C16.0123 37.5218 16.175 37.5065 16.3339 37.5065H46.0914C46.2669 37.5065 46.4432 37.4973 46.6172 37.5141C47.1475 37.5654 47.5453 37.9906 47.5551 38.5029C47.5641 39.0123 47.1769 39.4558 46.6504 39.5231Z" fill="black"/>
</svg>
