<svg width="35" height="35" viewBox="0 0 35 35" fill="none" xmlns="http://www.w3.org/2000/svg">
<path d="M30.625 14.583C30.625 24.7913 17.5 33.5413 17.5 33.5413C17.5 33.5413 4.375 24.7913 4.375 14.583C4.375 11.102 5.75781 7.76365 8.21922 5.30223C10.6806 2.84082 14.019 1.45801 17.5 1.45801C20.981 1.45801 24.3194 2.84082 26.7808 5.30223C29.2422 7.76365 30.625 11.102 30.625 14.583Z" stroke="black" stroke-width="2" stroke-linecap="round" stroke-linejoin="round"/>
<path d="M17.5 18.958C19.9162 18.958 21.875 16.9993 21.875 14.583C21.875 12.1668 19.9162 10.208 17.5 10.208C15.0838 10.208 13.125 12.1668 13.125 14.583C13.125 16.9993 15.0838 18.958 17.5 18.958Z" stroke="black" stroke-width="2" stroke-linecap="round" stroke-linejoin="round"/>
</svg>
