<svg width="60" height="62" viewBox="0 0 60 62" fill="none" xmlns="http://www.w3.org/2000/svg">
<path fill-rule="evenodd" clip-rule="evenodd" d="M31.7999 -9.29292e-05C32.2999 -0.100093 32.8999 0.199907 32.9999 0.799907L34.4999 7.79991C34.5999 8.29991 34.2999 8.89991 33.6999 8.99991C33.0999 9.09991 32.5999 8.79991 32.4999 8.19991L30.9999 1.19991C30.8999 0.699907 31.1999 0.0999071 31.7999 -9.29292e-05Z" fill="black"/>
<path fill-rule="evenodd" clip-rule="evenodd" d="M26.5 1.1998L25.4 8.3998L25.2 9.5998L25 10.6998L24.4 10.1998L23 10.6998L23.2 9.5998L23.4 8.3998L24.6 0.799801C24.7 0.299801 25.2 -0.100199 25.7 -0.00019888C26.2 0.0998011 26.6 0.599801 26.5 1.1998Z" fill="black"/>
<path fill-rule="evenodd" clip-rule="evenodd" d="M59.9 51.8L53.7 17.3C53.5 16 52.5999 14.8 51.2999 14.3L35.9 7.8C35.4 7.6 34.9 7.5 34.5 7.5C33.8 7.5 33.2 7.6 32.5 7.9C32.2 8.1 31.9 8.3 31.6 8.6L28.7999 11.3L28 12.1L27.2999 12.8L28.7999 14.2L29.5 13.5L30.2 12.8L32.9 10.2C33.5 9.6 34.2999 9.5 35.0999 9.8L50.5 16.3C51.1 16.6 51.6 17.1 51.7 17.8L58 52.2C58.2 53.3 57.5 54.3 56.4 54.5L28 59.5C26.9 59.7 25.9 59 25.7 57.9L24.7 52.3L24.5 51.2L24.2999 50.2L22.2 49.8L22.4 50.9L22.6 51.9L23.7 58.2C24.1 60.4 26.1999 61.8 28.2999 61.4L56.7 56.4C58.9 56.1 60.3 54 59.9 51.8Z" fill="black"/>
<path fill-rule="evenodd" clip-rule="evenodd" d="M38.9 20.6997L30.2 12.6997L28.7 11.2997L25.4 8.29975L25.3 8.19975C25 7.89975 24.6 7.89975 24.3 7.99975L23.4 8.39975L7.39997 14.9997C6.09997 15.4997 5.19997 16.5997 4.99997 17.9997L0.0999665 43.6997C-0.300034 45.8997 1.09997 47.9997 3.29997 48.3997L22.6 51.9997L24.7 52.3997L30.9 53.4997C33.1 53.8997 35.2 52.4997 35.6 50.2997L40.3 24.3997C40.4 22.9997 40 21.5997 38.9 20.6997ZM31.2 51.4997L24.3 50.1997L22.2 49.7997L3.59997 46.3997C2.49997 46.1997 1.79997 45.1997 1.99997 44.0997L6.89997 18.2997C6.99997 17.5997 7.49997 17.0997 8.09997 16.7997L23 10.6997L24.4 10.0997L25 10.5997L27.3 12.5997L28.8 13.8997L37.6 21.9997C38.1 22.4997 38.3 23.0997 38.2 23.7997L33.5 49.6997C33.4 50.8997 32.3 51.6997 31.2 51.4997Z" fill="black"/>
<path d="M23 31.5C22.5 31.2 21.8 30.8 21 30.5L21.8 25.7C22.3 25.9 22.8 26.2 23 26.7C23.3 27.1 23.4 27.6 23.4 28.1L25.3 28.4C25.4 27.4 25.1 26.5 24.5 25.8C23.9 25 23.1 24.5 22 24.3L22.3 22.7L21.2 22.5L21 23.9C20.5 23.9 20.1 23.9 19.7 23.9C19 24 18.4 24.2 17.8 24.6C17 25.2 16.5 26 16.3 27C16.1 27.8 16.2 28.5 16.5 29.1C16.8 29.7 17.2 30.1 17.7 30.4C18 30.6 18.5 30.9 18.9 31.1C19.1 31.2 19.4 31.3 19.7 31.5L19.4 33.5L18.9 36.4C18.3 36.2 17.8 35.8 17.5 35.4C17.2 34.9 17.1 34.4 17.1 33.9L15.2 33.6C15 34.6 15.3 35.5 15.9 36.3C16.5 37.1 17.4 37.6 18.6 38L18.3 39.6L19.4 39.8L19.7 38.2C19.9 38.2 20 38.2 20.2 38.2C20.9 38.2 21.5 38.1 22 37.9C22 37.9 22.1 37.9 22.1 37.8C22.7 37.5 23.2 37.2 23.6 36.7C24 36.2 24.3 35.6 24.4 35C24.6 34.1 24.5 33.4 24.2 32.9C23.9 32.2 23.5 31.8 23 31.5ZM18.6 28.9L18.5 28.8C18.2 28.4 18.1 27.9 18.2 27.2C18.2 27.1 18.2 27 18.3 26.9C18.4 26.4 18.7 26 19.1 25.7C19.4 25.5 19.7 25.4 20.1 25.3C20.3 25.3 20.6 25.3 20.9 25.3L20.5 27.6L20 29.9C19.4 29.6 18.9 29.3 18.6 28.9ZM22.6 34.7C22.5 35.2 22.3 35.7 21.8 36.1L21.7 36.2C21.2 36.6 20.6 36.7 19.9 36.7L20.7 32.1C20.8 32.2 21 32.2 21.1 32.3C21.6 32.6 21.9 32.9 22.2 33.2C22.6 33.5 22.7 34 22.6 34.7Z" fill="black"/>
</svg>
