<svg width="54" height="41" viewBox="0 0 54 41" fill="none" xmlns="http://www.w3.org/2000/svg">
<path fill-rule="evenodd" clip-rule="evenodd" d="M22.8031 27.7686C22.8031 27.1268 23.3234 26.6064 23.9652 26.6064H45.0066C49.9756 26.6064 54 30.6365 54 35.5998C54 38.4044 51.7209 40.6752 48.9199 40.6752H18.6569C18.6569 40.6752 18.657 40.6752 18.6569 40.6752C16.1882 40.6755 13.7972 39.8107 11.9 38.2311L0.418333 28.6662C-0.074807 28.2554 -0.141544 27.5226 0.269271 27.0294C0.680087 26.5363 1.41289 26.4696 1.90603 26.8804L13.3872 36.4449C14.8668 37.6768 16.7313 38.3512 18.6566 38.3509H48.9199C50.4409 38.3509 51.6757 37.1171 51.6757 35.5998C51.6757 31.9192 48.691 28.9307 45.0066 28.9307H23.9652C23.3234 28.9307 22.8031 28.4104 22.8031 27.7686Z" fill="black"/>
<path fill-rule="evenodd" clip-rule="evenodd" d="M13.7045 10.169C15.092 10.1673 16.4662 10.4391 17.7486 10.9689C19.0312 11.4988 20.1968 12.2763 21.1786 13.2571L26.6473 18.7305C27.7997 19.8829 28.4471 21.4458 28.4471 23.0756C28.4471 24.7053 27.7997 26.2683 26.6473 27.4207C25.4949 28.5731 23.9319 29.2205 22.3022 29.2205C20.6725 29.2205 19.1095 28.5731 17.9571 27.4207L14.4338 23.8973C13.9799 23.4435 13.9799 22.7077 14.4338 22.2538C14.8876 21.8 15.6234 21.8 16.0773 22.2538L19.6006 25.7771C20.3171 26.4937 21.2889 26.8962 22.3022 26.8962C23.3155 26.8962 24.2873 26.4937 25.0038 25.7771C25.7203 25.0606 26.1228 24.0889 26.1228 23.0756C26.1228 22.0623 25.7203 21.0905 25.0038 20.374L19.536 14.9015C19.5358 14.9014 19.5362 14.9017 19.536 14.9015C18.7704 14.1369 17.8612 13.5302 16.8611 13.1171C15.8609 12.7038 14.789 12.4919 13.7067 12.4933L1.16215 12.4933C0.520312 12.4933 0 11.9729 0 11.3311C0 10.6893 0.520312 10.169 1.16215 10.169H13.7045Z" fill="black"/>
<path d="M43.8711 15.0655C43.8711 15.873 43.6721 16.6469 43.2739 17.3871C42.8757 18.1105 42.2868 18.7162 41.507 19.204C40.7439 19.6919 39.8231 19.9695 38.7447 20.0368V22.0809H37.4009V20.0368C35.8912 19.9022 34.6635 19.4143 33.7179 18.5732C32.7722 17.7152 32.2911 16.63 32.2745 15.3178H34.6884C34.7548 16.0244 35.0119 16.6385 35.4599 17.16C35.9244 17.6815 36.5714 18.0096 37.4009 18.1442V11.8353C36.2894 11.5493 35.3935 11.2549 34.7133 10.9521C34.0331 10.6493 33.4524 10.1782 32.9713 9.53893C32.4902 8.89964 32.2496 8.04164 32.2496 6.96493C32.2496 5.60223 32.7142 4.47505 33.6432 3.58341C34.5889 2.69176 35.8414 2.19547 37.4009 2.09453V0H38.7447V2.09453C40.1549 2.21229 41.2913 2.67494 42.154 3.48247C43.0167 4.27317 43.5144 5.30782 43.6472 6.5864H41.2333C41.1503 5.99758 40.8932 5.46764 40.4618 4.99658C40.0305 4.5087 39.4581 4.18905 38.7447 4.03764V10.195C39.8397 10.481 40.7273 10.7755 41.4075 11.0783C42.1043 11.3643 42.6849 11.8269 43.1495 12.4662C43.6306 13.1055 43.8711 13.9719 43.8711 15.0655ZM34.564 6.83876C34.564 7.66311 34.8045 8.29399 35.2857 8.7314C35.7668 9.16881 36.4719 9.53052 37.4009 9.81652V3.98717C36.5382 4.07129 35.8497 4.35729 35.3354 4.84517C34.8211 5.31623 34.564 5.98076 34.564 6.83876ZM38.7447 18.1694C39.6406 18.0684 40.3374 17.7404 40.8351 17.1852C41.3494 16.63 41.6066 15.9655 41.6066 15.1916C41.6066 14.3673 41.3577 13.7364 40.86 13.299C40.3623 12.8447 39.6572 12.483 38.7447 12.2139V18.1694Z" fill="black"/>
</svg>
