<svg width="43" height="35" viewBox="0 0 43 35" fill="none" xmlns="http://www.w3.org/2000/svg">
<path fill-rule="evenodd" clip-rule="evenodd" d="M0 0.778523C0 0.348557 0.348557 0 0.778523 0H28.6232C29.0531 0 29.4017 0.348557 29.4017 0.778523V24.9319C29.4017 25.3619 29.0531 25.7105 28.6232 25.7105H0.778523C0.348557 25.7105 0 25.3619 0 24.9319V0.778523ZM1.55705 1.55705V24.1534H27.8446V1.55705H1.55705Z" fill="black"/>
<path fill-rule="evenodd" clip-rule="evenodd" d="M27.8444 10.0686C27.8444 9.6386 28.1929 9.29004 28.6229 9.29004H36.0481C36.2547 9.29004 36.4528 9.37216 36.5989 9.51831L42.1678 15.0922C42.3136 15.2382 42.3956 15.4361 42.3956 15.6424V24.9322C42.3956 25.3622 42.047 25.7107 41.617 25.7107H28.6229C28.1929 25.7107 27.8444 25.3622 27.8444 24.9322V10.0686ZM29.4014 10.8471V24.1537H40.8385V15.9647L35.7254 10.8471H29.4014Z" fill="black"/>
<path fill-rule="evenodd" clip-rule="evenodd" d="M9.13243 25.7104C7.00002 25.7104 5.27018 27.4407 5.27018 29.5767C5.27018 31.7127 7.00002 33.4431 9.13243 33.4431C11.2648 33.4431 12.9947 31.7127 12.9947 29.5767C12.9947 27.4407 11.2648 25.7104 9.13243 25.7104ZM3.71313 29.5767C3.71313 26.5821 6.13878 24.1533 9.13243 24.1533C12.1261 24.1533 14.5517 26.5821 14.5517 29.5767C14.5517 32.5714 12.1261 35.0001 9.13243 35.0001C6.13878 35.0001 3.71313 32.5714 3.71313 29.5767Z" fill="black"/>
<path fill-rule="evenodd" clip-rule="evenodd" d="M33.2637 25.7104C31.1312 25.7104 29.4014 27.4407 29.4014 29.5767C29.4014 31.7127 31.1312 33.4431 33.2637 33.4431C35.3961 33.4431 37.1259 31.7127 37.1259 29.5767C37.1259 27.4407 35.3961 25.7104 33.2637 25.7104ZM27.8444 29.5767C27.8444 26.5821 30.27 24.1533 33.2637 24.1533C36.2573 24.1533 38.6829 26.5821 38.6829 29.5767C38.6829 32.5714 36.2573 35.0001 33.2637 35.0001C30.27 35.0001 27.8444 32.5714 27.8444 29.5767Z" fill="black"/>
</svg>
