<svg width="48" height="50" viewBox="0 0 48 50" fill="none" xmlns="http://www.w3.org/2000/svg">
<path fill-rule="evenodd" clip-rule="evenodd" d="M9.13915 35.8924C13.4226 32.7677 18.5878 31.084 23.8899 31.084C29.1919 31.084 34.3571 32.7677 38.6406 35.8924C42.9241 39.0171 46.1046 43.4214 47.7237 48.4702C47.838 48.8267 47.7752 49.2164 47.5545 49.5188C47.3339 49.8213 46.982 50.0002 46.6076 50.0002H1.17207C0.797681 50.0002 0.445817 49.8213 0.225175 49.5188C0.00453363 49.2164 -0.0583338 48.8267 0.0559936 48.4702C1.67508 43.4214 4.85565 39.0171 9.13915 35.8924ZM23.8899 33.4281C19.0843 33.4281 14.4029 34.9541 10.5206 37.7862C7.07756 40.2978 4.42073 43.7216 2.84001 47.656H44.9397C43.359 43.7216 40.7021 40.2978 37.2591 37.7862C33.3768 34.9541 28.6954 33.4281 23.8899 33.4281Z" fill="black"/>
<path fill-rule="evenodd" clip-rule="evenodd" d="M12.0604 4.8998C15.1977 1.76251 19.4528 6.98604e-08 23.8896 0C26.0865 0 28.2619 0.432707 30.2915 1.27342C32.3212 2.11413 34.1653 3.34637 35.7188 4.8998C37.2722 6.45323 38.5044 8.29742 39.3452 10.3271C40.1859 12.3567 40.6186 14.5321 40.6186 16.729C40.6186 18.9258 40.1859 21.1012 39.3452 23.1309C38.5044 25.1605 37.2722 27.0047 35.7188 28.5581C34.1653 30.1116 32.3212 31.3438 30.2915 32.1845C28.2619 33.0252 26.0865 33.4579 23.8896 33.4579C19.4528 33.4579 15.1977 31.6954 12.0604 28.5581C8.92316 25.4208 7.16064 21.1658 7.16064 16.729C7.16064 12.2922 8.92316 8.03709 12.0604 4.8998ZM23.8896 2.34413C20.0745 2.34413 16.4157 3.85967 13.718 6.55735C11.0203 9.25503 9.50477 12.9139 9.50477 16.729C9.50477 20.5441 11.0203 24.2029 13.718 26.9006C16.4157 29.5983 20.0745 31.1138 23.8896 31.1138C25.7787 31.1138 27.6492 30.7417 29.3945 30.0188C31.1397 29.2959 32.7255 28.2363 34.0612 26.9006C35.397 25.5648 36.4566 23.9791 37.1795 22.2338C37.9024 20.4886 38.2744 18.618 38.2744 16.729C38.2744 14.8399 37.9024 12.9694 37.1795 11.2241C36.4566 9.47888 35.397 7.8931 34.0612 6.55735C32.7255 5.22159 31.1397 4.16201 29.3945 3.43911C27.6492 2.7162 25.7787 2.34413 23.8896 2.34413Z" fill="black"/>
<path fill-rule="evenodd" clip-rule="evenodd" d="M29.503 21.7022C30.0798 21.996 30.3092 22.7018 30.0154 23.2785L28.971 22.7465C30.0154 23.2785 30.0151 23.2792 30.0147 23.2798L30.0141 23.2811L30.0126 23.2839L30.0094 23.2901L30.0013 23.3055C29.9952 23.3169 29.9876 23.3308 29.9786 23.347C29.9605 23.3794 29.9364 23.4209 29.906 23.4703C29.8452 23.569 29.7588 23.6996 29.6438 23.8513C29.4143 24.1542 29.0677 24.5454 28.5812 24.9332C27.5939 25.7201 26.0702 26.4587 23.8908 26.4587C21.7118 26.4587 20.1883 25.7213 19.2009 24.9355C18.7144 24.5483 18.3678 24.1576 18.1382 23.8551C18.0232 23.7036 17.9367 23.573 17.8759 23.4745C17.8455 23.4251 17.8214 23.3836 17.8033 23.3513C17.7942 23.3351 17.7867 23.3212 17.7805 23.3098L17.7724 23.2944L17.7692 23.2881L17.7677 23.2854L17.7671 23.2841C17.7668 23.2834 17.7664 23.2828 18.8105 22.7502L17.7664 23.2828C17.4723 22.7062 17.7013 22.0003 18.2779 21.7062C18.8505 21.4141 19.5505 21.6378 19.8483 22.2056C19.8484 22.2057 19.8485 22.2059 19.8486 22.2061C19.8513 22.2109 19.8587 22.2239 19.8711 22.2439C19.8958 22.2841 19.94 22.3517 20.0055 22.438C20.1368 22.611 20.3504 22.8544 20.6606 23.1014C21.2668 23.5838 22.2835 24.1146 23.8908 24.1146C25.4976 24.1146 26.514 23.5832 27.1202 23.1C27.4305 22.8527 27.6441 22.6089 27.7755 22.4355C27.841 22.3491 27.8852 22.2813 27.91 22.241C27.9224 22.221 27.9298 22.2079 27.9325 22.2031M29.503 21.7022C28.9302 21.4104 28.2303 21.6346 27.9328 22.2025Z" fill="black"/>
<path fill-rule="evenodd" clip-rule="evenodd" d="M24.7641 2.37875C21.5815 2.18426 18.4244 3.05216 15.7884 4.8462C13.4303 6.45119 11.6086 8.71612 10.5445 11.3466C12.3597 12.1713 14.3346 12.5984 16.3361 12.5942L16.34 12.5942C18.3222 12.5966 20.2823 12.1768 22.0897 11.3628C23.8971 10.5489 25.5105 9.35937 26.8226 7.87347C27.045 7.6215 27.365 7.47718 27.7011 7.47718C28.0373 7.47718 28.3572 7.6215 28.5797 7.87347C29.8914 9.35894 31.5042 10.5482 33.311 11.3621C34.6867 11.9818 36.1507 12.3732 37.6458 12.5238C36.865 9.97824 35.3897 7.68878 33.3725 5.92076C30.9746 3.8191 27.9467 2.57324 24.7641 2.37875ZM39.06 14.9383C36.746 14.9404 34.4581 14.4498 32.3482 13.4994C30.6255 12.7233 29.0538 11.6551 27.7011 10.3451C26.348 11.6556 24.7757 12.7241 23.0522 13.5002C20.9419 14.4506 18.6535 14.9408 16.3391 14.9383C13.6097 14.9437 10.9227 14.2626 8.52544 12.9577C8.0295 12.6877 7.79653 12.1025 7.97124 11.5656C9.11854 8.03967 11.4042 4.99457 14.4695 2.90833C17.5348 0.822082 21.2061 -0.187178 24.9071 0.0389877C28.6081 0.265153 32.1291 1.71394 34.9176 4.1579C37.706 6.60187 39.6039 9.90263 40.3134 13.542C40.3804 13.8857 40.2902 14.2413 40.0675 14.5115C39.8449 14.7818 39.5131 14.9383 39.163 14.9383L39.0611 14.9383L39.06 14.9383Z" fill="black"/>
</svg>
