<svg width="39" height="39" viewBox="0 0 39 39" fill="none" xmlns="http://www.w3.org/2000/svg">
<path d="M37.2856 29.9682C36.5654 25.6276 35.7967 21.2947 35.1405 16.9452C34.7186 14.1503 32.5786 12.6396 30.2081 12.7148C27.7997 12.7916 25.3875 12.7248 22.9769 12.7404C22.6608 12.742 22.5985 12.6474 22.6046 12.3546C22.623 11.4479 22.6263 10.54 22.6035 9.63324C22.5957 9.30872 22.6558 9.20296 23.0142 9.20519C25.904 9.22356 28.7938 9.22189 31.6841 9.21354C34.4632 9.20574 36.8058 7.54085 37.673 4.98368C38.0125 3.98174 38.0064 2.94695 37.9975 1.90939C37.9908 1.13456 37.8644 1.00096 37.0986 1.00096H2.57427C2.28929 1.00096 2.00432 0.99818 1.7188 1.00208C1.20451 1.00876 1.00971 1.19745 1.00526 1.70288C1.0008 2.18214 0.994681 2.66196 1.0086 3.14122C1.03921 4.18045 1.28188 5.16848 1.81731 6.06466C3.0546 8.13589 4.89911 9.1896 7.30356 9.20964C10.2189 9.23413 13.1349 9.2191 16.0508 9.20964C16.313 9.20853 16.4026 9.25862 16.397 9.54084C16.3775 10.4738 16.3742 11.4078 16.3981 12.3401C16.4065 12.6624 16.3263 12.742 16.0002 12.7404C13.4605 12.7253 10.9202 12.7192 8.38054 12.7376C6.14085 12.7532 4.31081 14.3479 3.9468 16.5489C2.98224 22.3835 2.01434 28.217 1.047 34.0511C0.957947 34.5888 1.15442 34.8254 1.706 34.8304C2.17241 34.8343 2.63939 34.8448 3.10525 34.8254C3.34291 34.8153 3.41526 34.8782 3.4097 35.1232C3.39244 35.8357 3.4019 36.5487 3.40413 37.2612C3.40524 37.805 3.58613 37.9987 4.11544 37.9987C14.3666 38.0004 24.6172 38.0004 34.8684 37.9993C35.4094 37.9993 35.5947 37.8117 35.5964 37.2779C35.5986 36.5654 35.6097 35.8518 35.5902 35.1399C35.583 34.8749 35.6721 34.8165 35.9175 34.8254C36.3962 34.8437 36.8765 34.8365 37.3557 34.8287C37.826 34.8215 38.0409 34.5615 37.9663 34.1051C37.7398 32.7257 37.5144 31.3464 37.2856 29.9682ZM7.24567 8.12142C4.31915 8.11585 2.10729 5.85815 2.09282 2.9297C2.08985 2.36973 2.3713 2.08974 2.93716 2.08974H19.4927C25.1537 2.08974 30.8148 2.09363 36.4758 2.08139C36.8353 2.08028 36.9088 2.17824 36.9177 2.52614C36.9672 4.44319 36.3194 6.02458 34.7498 7.17514C33.8659 7.82251 32.8574 8.12365 31.7682 8.1242C23.5942 8.12866 15.4202 8.13645 7.24567 8.12142ZM17.4746 9.45178C17.4729 9.26697 17.5224 9.2102 17.7111 9.21131C18.9022 9.21966 20.0938 9.22244 21.2844 9.20964C21.5154 9.20741 21.527 9.30816 21.5259 9.48517C21.5204 10.4821 21.5176 11.479 21.527 12.476C21.5293 12.6775 21.4786 12.742 21.2705 12.737C20.6749 12.7226 20.0794 12.732 19.4838 12.732C18.8883 12.732 18.3183 12.7242 17.7362 12.7359C17.5375 12.7404 17.4712 12.6903 17.4734 12.4815C17.484 11.4712 17.4824 10.4615 17.4746 9.45178ZM34.5166 35.2829C34.4799 35.7204 34.491 36.1641 34.5144 36.6033C34.5288 36.871 34.4292 36.9183 34.1865 36.9166C32.6192 36.9066 31.0519 36.9111 29.484 36.9111C26.1417 36.9111 22.7994 36.9116 19.4571 36.9111C14.5993 36.9111 9.74083 36.9077 4.88297 36.9194C4.55737 36.92 4.46275 36.8421 4.4839 36.5181C4.51396 36.0533 4.50728 35.5846 4.48557 35.1193C4.47333 34.8671 4.56349 34.7936 4.79336 34.8298C4.84401 34.8376 4.89689 34.8309 4.94865 34.8309C14.6521 34.8309 24.355 34.8337 34.058 34.8215C34.4342 34.8209 34.5483 34.9066 34.5166 35.2829ZM36.3772 33.7505C30.7541 33.7388 25.1309 33.7422 19.5078 33.7422C13.8846 33.7422 8.26088 33.7388 2.63772 33.7505C2.27148 33.7505 2.19635 33.672 2.25813 33.3085C2.88484 29.6097 3.49374 25.9075 4.10877 22.2065C4.41823 20.3434 4.71878 18.4781 5.04383 16.6179C5.33214 14.9658 6.75476 13.823 8.51134 13.8219C14.8475 13.818 21.1831 13.8208 27.5192 13.8208C28.5166 13.8208 29.5146 13.8158 30.512 13.8219C32.3175 13.8325 33.6745 14.9702 33.9745 16.757C34.7331 21.273 35.4773 25.7918 36.2286 30.3094C36.3962 31.318 36.5559 32.3278 36.7468 33.3314C36.8136 33.6826 36.7246 33.7511 36.3772 33.7505Z" fill="black" stroke="black" stroke-width="0.5"/>
<path d="M23.1222 20.1587C22.8745 19.9099 22.5706 19.9461 22.2444 20.2706C21.6383 20.8735 21.03 21.4729 20.4355 22.0864C20.2808 22.2461 20.1528 22.2745 19.9368 22.2105C19.2784 22.0146 18.7029 22.1994 18.2587 22.712C17.8018 23.2403 17.7222 23.8531 18.02 24.4838C18.3111 25.1 18.8237 25.4039 19.3407 25.4212C20.6142 25.4173 21.3806 24.3847 21.0623 23.3076C21.0083 23.1239 21.0283 23.012 21.1691 22.8751C21.7914 22.2712 22.402 21.6544 23.012 21.0382C23.3381 20.7087 23.371 20.4087 23.1222 20.1587ZM19.4899 24.3335C19.1704 24.329 18.9378 24.0847 18.9478 23.7635C18.9573 23.4629 19.1894 23.2341 19.4899 23.2286C19.8049 23.2236 20.0515 23.4663 20.0515 23.7819C20.0509 24.1008 19.8094 24.3379 19.4899 24.3335Z" fill="black"/>
<path d="M19.4081 15.7875C15.0261 15.852 11.4473 19.4869 11.5046 23.8158C11.5641 28.2778 15.1658 31.8224 19.5912 31.774C23.9932 31.7261 27.5403 28.0885 27.4919 23.6722C27.4446 19.3004 23.7772 15.7235 19.4081 15.7875ZM26.3386 24.7415C26.057 26.4704 25.2784 27.9199 23.9392 29.0543C22.885 29.9477 21.6628 30.467 20.2357 30.6424C20.0632 30.7002 20.0309 30.5806 20.0409 30.3908C20.0526 30.1709 20.057 29.9488 20.0381 29.73C20.0108 29.4189 19.8361 29.2313 19.5138 29.2163C19.2094 29.2018 18.9817 29.4144 18.9595 29.74C18.9455 29.9466 18.9372 30.1564 18.9595 30.3612C18.9873 30.6151 18.896 30.6618 18.6589 30.6301C16.9903 30.4086 15.5788 29.6872 14.4344 28.4581C13.4543 27.405 12.8816 26.152 12.6589 24.7326C12.6127 24.4353 12.645 24.2622 13.0085 24.3207C13.1727 24.3474 13.3452 24.3312 13.5133 24.3229C13.8445 24.3056 14.0465 24.1381 14.0643 23.7958C14.0805 23.4762 13.8567 23.2569 13.5022 23.2386C13.3213 23.2291 13.137 23.2185 12.9584 23.2408C12.674 23.2759 12.6139 23.1673 12.6528 22.8996C12.8988 21.1924 13.6524 19.7568 14.9404 18.6107C15.9734 17.6912 17.1884 17.1568 18.5509 16.9403C18.852 16.8924 19.0157 16.9313 18.9595 17.2898C18.9316 17.4668 18.9428 17.6533 18.9595 17.8331C18.9884 18.1454 19.1609 18.3318 19.4838 18.3469C19.7921 18.3613 20.0136 18.1537 20.0392 17.8247C20.052 17.6572 20.0648 17.4841 20.0387 17.3199C19.9819 16.9636 20.1194 16.8863 20.4556 16.9408C22.1415 17.2147 23.5652 17.9645 24.6939 19.2503C25.5967 20.2778 26.1255 21.4818 26.3381 22.8317C26.3854 23.13 26.3514 23.2981 25.9897 23.2413C25.8127 23.2135 25.6268 23.2258 25.4464 23.2413C25.1225 23.2686 24.9144 23.4991 24.9333 23.8058C24.9528 24.1281 25.142 24.2956 25.4554 24.3207C25.6229 24.334 25.7954 24.3474 25.9596 24.3207C26.3231 24.2617 26.3915 24.4103 26.3381 24.7415H26.3386Z" fill="black" stroke="black" stroke-width="0.5"/>
<path d="M9.21373 4.41606C8.32041 4.41606 7.42654 4.41829 6.53322 4.41495C6.10521 4.41328 5.86699 4.22402 5.85586 3.88949C5.84417 3.53881 6.09297 3.3284 6.53601 3.32784C8.336 3.32562 10.136 3.32562 11.936 3.32784C12.3618 3.3284 12.5905 3.52656 12.5894 3.87334C12.5883 4.21957 12.3618 4.41216 11.9326 4.41439C11.026 4.41829 10.1198 4.4155 9.21317 4.4155L9.21373 4.41606Z" fill="black" stroke="black" stroke-width="0.5"/>
<path d="M15.2167 3.32783C15.4878 3.32783 15.7588 3.32004 16.0299 3.33006C16.3633 3.34231 16.5575 3.526 16.5826 3.85775C16.6059 4.17002 16.3716 4.40436 16.021 4.41216C15.4794 4.42385 14.9367 4.42106 14.3946 4.41216C14.0584 4.40715 13.8681 4.21177 13.838 3.88614C13.8102 3.58556 14.0618 3.34453 14.4035 3.33006C14.674 3.31837 14.9456 3.32783 15.2167 3.32783Z" fill="black" stroke="black" stroke-width="0.5"/>
<path d="M23.1222 20.1587C22.8745 19.9099 22.5706 19.9461 22.2444 20.2706C21.6383 20.8735 21.03 21.4729 20.4355 22.0864C20.2808 22.2461 20.1528 22.2745 19.9368 22.2105C19.2784 22.0146 18.7029 22.1994 18.2587 22.712C17.8018 23.2403 17.7222 23.8531 18.02 24.4838C18.3111 25.1 18.8237 25.4039 19.3407 25.4212C20.6142 25.4173 21.3806 24.3847 21.0623 23.3076C21.0083 23.1239 21.0283 23.012 21.1691 22.8751C21.7914 22.2712 22.402 21.6544 23.012 21.0382C23.3381 20.7087 23.371 20.4087 23.1222 20.1587ZM19.4899 24.3335C19.1704 24.329 18.9378 24.0847 18.9478 23.7635C18.9573 23.4629 19.1894 23.2341 19.4899 23.2286C19.8049 23.2236 20.0515 23.4663 20.0515 23.7819C20.0509 24.1008 19.8094 24.3379 19.4899 24.3335Z" fill="black"/>
<path d="M23.1222 20.1587C22.8745 19.9099 22.5706 19.9461 22.2444 20.2706C21.6383 20.8735 21.03 21.4729 20.4355 22.0864C20.2808 22.2461 20.1528 22.2745 19.9368 22.2105C19.2784 22.0146 18.7029 22.1994 18.2587 22.712C17.8018 23.2403 17.7222 23.8531 18.02 24.4838C18.3111 25.1 18.8237 25.4039 19.3407 25.4212C20.6142 25.4173 21.3806 24.3847 21.0623 23.3076C21.0083 23.1239 21.0283 23.012 21.1691 22.8751C21.7914 22.2712 22.402 21.6544 23.012 21.0382C23.3381 20.7087 23.371 20.4087 23.1222 20.1587ZM19.4899 24.3335C19.1704 24.329 18.9378 24.0847 18.9478 23.7635C18.9573 23.4629 19.1894 23.2341 19.4899 23.2286C19.8049 23.2236 20.0515 23.4663 20.0515 23.7819C20.0509 24.1008 19.8094 24.3379 19.4899 24.3335Z" fill="black" stroke="black" stroke-width="0.5"/>
</svg>
